# xmcd
#
# Track frame offsets:
# 150
# 16491
# 30349
# 49355
# 64617
# 84926
# 103845
# 121008
# 136179
# 151510
# 171735
#
# Disc length: 2525 seconds
#
#
# Revision: 0
# Processed by: cddbd v1.4PL0 Copyright (c) Steve Scherf et al.
# Submitted via: FreeRIP 2.11 
#
DISCID=8209db0b
DTITLE=Michelle Crowley - Michelle Crowley
DYEAR=2002
DGENRE=
TTITLE0=STRONGER THAN GOODBYE
TTITLE1=HE`S COMIN`AROUND
TTITLE2=LOVE SO RARE
TTITLE3=BETTER DAYS TO CRY
TTITLE4=FANCY
TTITLE5=I WONT STAND IN LINE
TTITLE6=ONE OF THOSE NIGHTS TONIGHT
TTITLE7=IT MATTERS TO ME
TTITLE8=STILL IN LOVE
TTITLE9=BLACK VELVET
TTITLE10=SOMEBODY`S OUT THERE WATCHING
EXTD=
EXTT0=Stronger Than Goodbye
EXTT1=He`s Coming Around
EXTT2=Love So Rare
EXTT3=Better Days To Cry
EXTT4=Fancy
EXTT5=I Wont Stand In Line
EXTT6=One Of Those Nights Tonight
EXTT7=It Matters To Me
EXTT8=Still In Love
EXTT9=Black Velvet
EXTT10=Somebodies Out There Watching
PLAYORDER=
